<mxfile host="app.diagrams.net" modified="2024-01-10T09:20:14.654Z" agent="Mozilla/5.0 (Macintosh; Intel Mac OS X 10_15_7) AppleWebKit/537.36 (KHTML, like Gecko) Chrome/120.0.0.0 Safari/537.36" version="21.7.2" etag="Tn8fpTHdG5hIu4J5Bl--" type="github">
  <diagram name="Page-1" id="dmVKVIniqjUbQVvtE7PV">
    <mxGraphModel>
      <root>
        <mxCell id="0" />
        <mxCell id="1" parent="0" />
      </root>
    </mxGraphModel>
  </diagram>
</mxfile>
